<?xml version="1.0" encoding="UTF-8"?>
<svg id="Capa_1" xmlns="http://www.w3.org/2000/svg" version="1.1" viewBox="0 0 1145.22 1179.11">
  <!-- Generator: Adobe Illustrator 29.7.1, SVG Export Plug-In . SVG Version: 2.1.1 Build 8)  -->
  <defs>
    <style>
      .st0 {
        fill: #1a466c;
      }

      .st1 {
        fill: #fff;
        stroke: #fff;
        stroke-miterlimit: 10;
        stroke-width: 5px;
      }

      .st2 {
        fill: #2d7cc0;
      }

      .st3, .st4 {
        isolation: isolate;
      }

      .st3, .st5 {
        display: none;
      }

      .st4 {
        fill: #1d1d1b;
        font-family: MyriadPro-Regular, 'Myriad Pro';
        font-size: 72.17px;
      }
    </style>
  </defs>
  <g id="Capa_4" class="st5">
    <g class="st3">
      <text class="st4" transform="translate(-2054.19 4103.78)"><tspan x="0" y="0">portada</tspan></text>
    </g>
    <g class="st3">
      <text class="st4" transform="translate(-1404.61 4103.78)"><tspan x="0" y="0">contra</tspan></text>
    </g>
  </g>
  <g id="Capa_3">
    <path class="st2" d="M618.81,408.92h0c9.74,27.38,41.01,40.33,67.25,27.86h0c41.67-19.81,85.14,23.66,65.33,65.33h0c-12.47,26.24.48,57.51,27.86,67.25h0c43.47,15.46,43.47,76.94,0,92.4h0c-27.38,9.74-40.33,41.01-27.86,67.25h0c19.81,41.67-23.66,85.14-65.33,65.33h0c-26.24-12.47-57.51.48-67.25,27.86h0c-15.46,43.47-76.94,43.47-92.4,0h0c-9.74-27.38-41.01-40.33-67.25-27.86h0c-41.67,19.81-85.14-23.66-65.33-65.33h0c12.47-26.24-.48-57.51-27.86-67.25h0c-43.47-15.46-43.47-76.94,0-92.4h0c27.38-9.74,40.33-41.01,27.86-67.25h0c-19.81-41.67,23.66-85.14,65.33-65.33h0c26.24,12.47,57.51-.48,67.25-27.86h0c15.46-43.47,76.94-43.47,92.4,0h0Z"/>
    <g>
      <path class="st1" d="M483.46,731.75c-3.48,0-6.29-2.82-6.29-6.29v-203c0-6.16,5.01-11.18,11.18-11.18h168.53c6.17,0,11.18,5.01,11.18,11.18v201.94c0,3.48-2.82,6.29-6.29,6.29s-6.29-2.82-6.29-6.29v-200.53h-165.72v201.6c0,3.48-2.82,6.29-6.29,6.29h-.01Z"/>
      <path class="st1" d="M659.72,621.68h-175.91c-3.48,0-6.29-2.82-6.29-6.29s2.82-6.29,6.29-6.29h175.91c3.48,0,6.29,2.82,6.29,6.29s-2.82,6.29-6.29,6.29h0Z"/>
      <path class="st1" d="M510.65,619.01c-3.48,0-6.29-2.82-6.29-6.29v-63.25c0-6.21,5.06-11.27,11.27-11.27h71.43c6.21,0,11.27,5.06,11.27,11.27v62.01c0,3.48-2.82,6.29-6.29,6.29s-6.29-2.82-6.29-6.29v-60.69h-68.79v61.94c0,3.48-2.82,6.29-6.29,6.29h-.02Z"/>
      <path class="st1" d="M635.2,618.3c-3.48,0-6.29-2.82-6.29-6.29v-28.18h-34.22c-3.48,0-6.29-2.82-6.29-6.29s2.82-6.29,6.29-6.29h37.31c5.23,0,9.49,4.26,9.49,9.49v31.27c0,3.48-2.82,6.29-6.29,6.29h0ZM632,583.83h.02-.02Z"/>
      <path class="st1" d="M659.72,706.43h-175.91c-3.48,0-6.29-2.82-6.29-6.29s2.82-6.29,6.29-6.29h175.91c3.48,0,6.29,2.82,6.29,6.29s-2.82,6.29-6.29,6.29h0Z"/>
      <path class="st1" d="M511.36,703.94c-3.48,0-6.29-2.82-6.29-6.29v-52.59c0-3.48,2.82-6.29,6.29-6.29h119.05c6.11,0,11.09,4.98,11.09,11.09v46.91c0,3.48-2.82,6.29-6.29,6.29s-6.29-2.82-6.29-6.29v-45.41h-111.26v46.3c0,3.48-2.82,6.29-6.29,6.29h-.01Z"/>
      <path class="st1" d="M562.71,576.9h-20.79c-3.48,0-6.29-2.82-6.29-6.29v-24.34c0-3.48,2.82-6.29,6.29-6.29s6.29,2.82,6.29,6.29v18.05h8.2v-18.23c0-3.48,2.82-6.29,6.29-6.29s6.29,2.82,6.29,6.29v24.52c0,3.48-2.82,6.29-6.29,6.29h.01Z"/>
      <path class="st1" d="M549.77,670.16h-15.52c-2.09,0-3.78-1.69-3.78-3.78v-18.17c0-2.08,1.69-3.78,3.78-3.78s3.78,1.69,3.78,3.78v14.39h7.97v-14.53c0-2.08,1.69-3.78,3.78-3.78s3.78,1.69,3.78,3.78v18.3c0,2.08-1.69,3.78-3.78,3.78h-.01Z"/>
      <path class="st1" d="M612.31,670.16h-15.52c-2.09,0-3.78-1.69-3.78-3.78v-18.17c0-2.08,1.69-3.78,3.78-3.78s3.78,1.69,3.78,3.78v14.39h7.96v-14.53c0-2.08,1.69-3.78,3.78-3.78s3.78,1.69,3.78,3.78v18.3c0,2.08-1.69,3.78-3.78,3.78h0Z"/>
      <path class="st1" d="M573.55,704.83c-3.48,0-6.29-2.82-6.29-6.29v-50.82c0-3.48,2.82-6.29,6.29-6.29s6.29,2.82,6.29,6.29v50.82c0,3.48-2.82,6.29-6.29,6.29Z"/>
    </g>
  </g>
  <g id="Capa_6" class="st5">
    <path class="st0" d="M-1201.62,2578.33c-10.05-1.93-20.29-3.79-30.51-2.12-7.48,1.23-15.04,4.86-19.98,10.72-5.59,6.62-7.11,15.38-4.64,23.64,2.52,8.42,8.57,15.06,15.78,19.84,15.62,10.35,35.28,12.87,53.54,14.03,19.01,1.21,38.1,1.16,57.11-.16s38.07-3.91,56.78-7.84c18.62-3.9,36.97-9.15,54.81-15.76,4.44-1.65,8.86-3.38,13.23-5.2,3.82-1.59,7.83-3.04,10.99-5.81s4.55-6.77,3.17-10.64c-1.32-3.74-4.6-6.42-7.95-8.31-4-2.26-8.45-3.9-12.78-5.42s-9.13-2.9-13.78-4.05c-9.63-2.39-19.43-4.18-29.23-5.7-19.95-3.11-40.11-4.83-60.29-5.47s-40.35-.21-60.49.93c-4.93.28-9.86.6-14.79.96-1.35.1-2.5,1.08-2.5,2.5,0,1.28,1.15,2.6,2.5,2.5,19.39-1.4,38.83-2.24,58.27-2.17,19.33.06,38.67,1.01,57.88,3.17,9.5,1.06,18.96,2.44,28.36,4.14s18.46,3.57,27.44,6.3c4.36,1.33,8.68,2.85,12.86,4.7,3.16,1.4,6.7,2.98,8.83,5.83,5,6.7-6.97,10.56-11.32,12.34-16.9,6.94-34.31,12.6-52.03,17.02-17.67,4.41-35.64,7.59-53.74,9.55-18.27,1.98-36.66,2.75-55.03,2.36s-36.42-1.02-53.53-6.67c-14.38-4.75-31.66-15.35-30.23-32.82.59-7.21,5.62-12.9,11.75-16.24,7.46-4.06,16.09-4.43,24.38-3.58,4.64.48,9.22,1.37,13.79,2.24,1.32.25,2.7-.37,3.08-1.75.34-1.22-.41-2.82-1.75-3.08h0l.02.02Z"/>
    <path class="st0" d="M-1332.53,2082.43c-7.58-.85-15.34,2.63-20.34,8.27-2.54,2.86-4.5,6.29-5.42,10.02-1.12,4.51-.66,9.26.52,13.71,2.18,8.15,6.27,16.02,10.87,23.05,4.45,6.8,9.71,13.07,15.54,18.72,12.16,11.78,26.69,20.89,42.21,27.54,17.75,7.6,36.55,12.22,55.55,15.37,20.08,3.33,40.55,5.75,60.93,5.22,19-.5,37.99-3.79,55.49-11.39,8.19-3.55,16.16-8.04,23.01-13.8,6.44-5.41,11.58-12.55,12.9-21.02,1.28-8.2-.43-16.61-4.41-23.87-4.15-7.57-10.84-13.32-18.2-17.66-7.84-4.62-16.47-7.92-24.96-11.11-9.16-3.43-18.47-6.46-27.93-8.95-19.02-5.01-38.76-7.88-58.45-7.34-3.96.11-8.29.59-11.1,3.7-2.16,2.38,1.37,5.93,3.54,3.54,2.42-2.67,6.88-2.25,10.14-2.29,4.75-.06,9.5.08,14.24.4,9.26.62,18.46,1.94,27.54,3.81,18.12,3.74,35.99,9.51,52.98,16.84,7.45,3.21,14.89,6.99,20.85,12.59,5.61,5.27,9.43,12.06,10.78,19.66,1.31,7.35-.25,14.81-4.56,20.91-4.69,6.64-11.91,11.37-18.89,15.3-15.26,8.59-32.6,13.18-49.95,14.87-19.71,1.93-39.6.4-59.17-2.23-18.08-2.43-36.12-5.8-53.47-11.51-16.02-5.27-31.36-12.67-44.83-22.9-12.21-9.28-22.77-20.96-29.96-34.55-1.83-3.46-3.47-7.04-4.77-10.73-1.45-4.13-2.57-8.62-1.94-13.02.95-6.57,5.89-12.19,11.88-14.79,2.97-1.29,6.17-1.72,9.38-1.36,1.34.15,2.5-1.26,2.5-2.5,0-1.48-1.15-2.35-2.5-2.5h0Z"/>
    <path class="st0" d="M-1292.99,2354.61c-6.4,1.01-12.6,3.11-18.32,6.15-2.76,1.46-5.38,3.16-7.85,5.06-2.64,2.03-4.96,4.49-5.68,7.85-1.43,6.64,2.45,12.62,7.49,16.56s10.7,6.52,16.8,7.8c11.76,2.47,24.11-.15,33.69-7.46,4.54-3.47,8.42-7.77,11.23-12.76,1.63-2.89,3.04-6.04,3.21-9.4.16-3.01-1.01-5.92-3.11-8.05-4.25-4.32-11.12-5.41-16.86-6.11-6.51-.79-13.36-.16-18.49,4.32-1.02.89-.91,2.63,0,3.54,1.01,1.01,2.52.89,3.54,0,3.65-3.19,8.81-3.42,13.4-3.02,4.25.38,9.08,1.12,12.83,3.28,1.58.91,2.97,2.15,3.48,3.92.74,2.6-.43,5.38-1.6,7.68-2.2,4.31-5.24,8.1-8.9,11.26-7.66,6.61-17.73,9.61-27.75,8.54-5.17-.55-10.27-2.29-14.73-4.94-4.14-2.46-8.87-6.13-9.48-11.28-.34-2.9.88-5.13,3.02-6.99,2.27-1.98,4.93-3.61,7.56-5.06,5.56-3.06,11.61-5.06,17.88-6.05,1.33-.21,2.08-1.88,1.75-3.08-.39-1.42-1.74-1.96-3.08-1.75h-.03Z"/>
    <path class="st0" d="M-1638.57,2372.79c-8.46-2.26-17.32-2.6-25.94-1.06-7.56,1.34-15.89,4.08-21.44,9.64-5.84,5.85-6.53,14.23-3.08,21.53s10.69,11.84,18,14.7c8.23,3.22,17.24,5.01,26.01,3.25,8.14-1.64,15.94-5.81,22.99-10.08,6.7-4.06,14.06-9.61,16.96-17.19,1.33-3.48,1.07-7.4-.9-10.59-1.76-2.86-4.55-4.98-7.47-6.57-3.33-1.82-6.96-3.05-10.55-4.25-4.34-1.45-8.73-2.65-13.28-3.19-7.58-.9-15.68.68-21.54,5.81-1.34,1.18-2.49,2.57-3.47,4.06-1.77,2.7,2.56,5.21,4.32,2.52,3.29-5.02,9.5-7.38,15.31-7.62,7.69-.32,15.43,2.35,22.52,5.07,4.37,1.68,10.78,4.78,10.91,10.06.08,3.32-2.15,6.31-4.25,8.68-2.33,2.63-5.03,4.88-7.93,6.86s-6.15,3.81-9.35,5.49-6.69,3.4-10.24,4.63c-3.64,1.26-7.38,2.05-11.24,2.04s-7.76-.74-11.52-1.81c-6.72-1.92-13.62-4.76-18.29-10.17-3.98-4.62-5.75-11.71-2.42-17.15s10.47-8.21,16.47-9.83c7.25-1.96,14.98-2.43,22.4-1.23,1.92.31,3.81.72,5.68,1.23,3.11.83,4.44-3.99,1.33-4.82h.01Z"/>
  </g>
</svg>