<?xml version="1.0" encoding="UTF-8"?>
<svg xmlns="http://www.w3.org/2000/svg" version="1.1" viewBox="0 0 1145.22 1179.11">
  <!-- Generator: Adobe Illustrator 29.7.1, SVG Export Plug-In . SVG Version: 2.1.1 Build 8)  -->
  <defs>
    <style>
      .st0 {
        fill: #1a466c;
      }

      .st1 {
        fill: #2d7cc0;
      }

      .st2 {
        fill: #fff;
      }

      .st3 {
        display: none;
      }

      .st4 {
        fill: #1d1d1b;
        font-family: MyriadPro-Regular, 'Myriad Pro';
        font-size: 72.17px;
      }
    </style>
  </defs>
  <g id="Capa_4" class="st3">
    <text class="st4" transform="translate(-2054.19 4103.78)"><tspan x="0" y="0">portada</tspan></text>
    <text class="st4" transform="translate(-1404.61 4103.78)"><tspan x="0" y="0">contra</tspan></text>
  </g>
  <g id="Capa_3">
    <g>
      <path class="st1" d="M618.18,408.48h0c9.6,27.01,40.45,39.78,66.34,27.48h0c41.11-19.54,83.99,23.34,64.45,64.45h0c-12.31,25.89.47,56.74,27.48,66.34h0c42.88,15.25,42.88,75.9,0,91.15h0c-27.01,9.6-39.78,40.45-27.48,66.34h0c19.54,41.11-23.34,83.99-64.45,64.45h0c-25.89-12.31-56.73.47-66.34,27.48h0c-15.25,42.88-75.9,42.88-91.15,0h0c-9.6-27.01-40.45-39.78-66.34-27.48h0c-41.11,19.54-83.99-23.34-64.45-64.45h0c12.31-25.89-.47-56.74-27.48-66.34h0c-42.88-15.25-42.88-75.9,0-91.15h0c27.01-9.6,39.78-40.45,27.48-66.34h0c-19.54-41.11,23.34-83.99,64.45-64.45h0c25.89,12.31,56.73-.47,66.34-27.48h0c15.25-42.88,75.9-42.88,91.15,0Z"/>
      <g>
        <path class="st2" d="M624.96,577.25c3.24-1.87,5.24-5.32,5.24-9.06v-55.1s0-.05,0-.07c0-.02,0-.04,0-.06,0-.1-.04-.18-.04-.28-.03-.75-.14-1.48-.32-2.18-.06-.24-.14-.46-.21-.69-.2-.6-.45-1.18-.75-1.73-.1-.19-.19-.38-.3-.56-.44-.69-.94-1.34-1.52-1.91-.09-.09-.21-.16-.31-.25-.53-.48-1.1-.89-1.71-1.25-.1-.06-.18-.15-.28-.21l-45.58-24.78c-2.93-1.6-6.45-1.69-9.46-.27l-53.33,25.23c-.11.05-.19.14-.3.2-.65.34-1.25.73-1.81,1.19-.17.14-.34.26-.5.41-.62.58-1.18,1.21-1.65,1.92-.07.11-.11.22-.18.33-.38.63-.69,1.3-.93,2-.08.22-.15.44-.21.67-.2.73-.32,1.49-.36,2.27,0,.1-.04.19-.04.29,0,.02,0,.05,0,.07,0,.03,0,.06,0,.09v55.1c0,3.93,2.2,7.52,5.7,9.31l52,26.55c1.49.76,3.12,1.14,4.75,1.14,1.8,0,3.6-.47,5.21-1.39l46.91-26.99ZM583.73,576.87v-30.99l25.57-14.72v30.99l-25.57,14.72ZM573.83,500.03l24.51,13.33-24.87,14.32c-.07,0-.13-.02-.2-.02-.52,0-1.03.08-1.53.15l-27.24-13.91,29.32-13.87ZM531.29,530.61l31.54,16.11v31.63l-31.54-16.11v-31.63Z"/>
        <path class="st2" d="M697.65,641.03c-.03-.75-.14-1.48-.32-2.18-.06-.24-.14-.46-.21-.69-.2-.6-.45-1.18-.75-1.73-.1-.19-.19-.38-.3-.56-.44-.69-.94-1.34-1.52-1.91-.09-.09-.21-.16-.31-.25-.53-.48-1.1-.89-1.71-1.25-.1-.06-.18-.15-.28-.21l-45.58-24.78c-2.93-1.6-6.45-1.69-9.46-.27l-53.33,25.23c-.11.05-.19.14-.3.2-.65.34-1.25.73-1.81,1.19-.17.14-.34.26-.5.41-.62.58-1.18,1.21-1.65,1.92-.07.11-.11.22-.18.33-.38.63-.69,1.3-.93,2-.08.22-.15.44-.21.67-.2.73-.32,1.49-.36,2.27,0,.1-.04.19-.04.29,0,.02,0,.05,0,.07,0,.03,0,.06,0,.09v55.1c0,3.93,2.2,7.52,5.7,9.31l52,26.55c1.49.76,3.12,1.14,4.75,1.14,1.8,0,3.6-.47,5.21-1.39l46.91-27c3.24-1.87,5.24-5.32,5.24-9.06v-55.1s0-.05,0-.07c0-.02,0-.04,0-.06,0-.1-.04-.18-.04-.28ZM641.33,628.37l24.51,13.33-24.87,14.32c-.07,0-.13-.02-.19-.02-.52,0-1.03.08-1.53.15l-27.24-13.91,29.32-13.87ZM598.78,658.95l31.54,16.11v31.63l-31.54-16.11v-31.63ZM651.22,705.21v-30.98l25.57-14.72v30.98l-25.57,14.72Z"/>
        <path class="st2" d="M568.86,641.03c-.03-.75-.14-1.48-.32-2.18-.06-.24-.14-.46-.21-.69-.2-.6-.45-1.18-.75-1.73-.1-.19-.19-.38-.3-.56-.44-.69-.94-1.34-1.52-1.91-.09-.09-.21-.16-.31-.25-.53-.48-1.1-.89-1.71-1.25-.1-.06-.18-.15-.28-.21l-45.58-24.78c-2.93-1.6-6.45-1.69-9.46-.27l-53.33,25.23c-.11.05-.19.14-.3.2-.65.34-1.25.73-1.81,1.19-.17.14-.34.26-.5.41-.62.58-1.18,1.21-1.65,1.92-.07.11-.11.22-.18.33-.38.63-.69,1.3-.93,2-.08.22-.15.44-.21.67-.2.73-.32,1.49-.36,2.27,0,.1-.04.19-.04.29,0,.02,0,.05,0,.07,0,.03,0,.06,0,.09v55.1c0,3.93,2.2,7.52,5.7,9.31l52,26.55c1.49.76,3.12,1.14,4.75,1.14,1.8,0,3.6-.47,5.21-1.39l46.91-27c3.24-1.87,5.24-5.32,5.24-9.06v-55.1s0-.05,0-.07c0-.02,0-.04,0-.06,0-.1-.04-.18-.04-.28ZM512.54,628.37l24.51,13.33-24.87,14.32c-.07,0-.13-.02-.19-.02-.52,0-1.03.08-1.53.15l-27.23-13.91,29.32-13.87ZM469.99,658.95l31.54,16.11v31.63l-31.54-16.11v-31.63ZM522.44,705.21v-30.98l25.57-14.71v30.98l-25.57,14.71Z"/>
        <path class="st2" d="M460.07,571.72l5.99-2.1c-5.33,11.56-8.52,21.97-8.68,22.52-1.34,4.42,1.16,9.08,5.57,10.42.81.24,1.63.36,2.43.36,3.58,0,6.9-2.32,8-5.93.04-.12,3.12-10.16,8.1-20.88l2.04,5.71c.92,2.56,3.33,4.16,5.9,4.16.7,0,1.42-.12,2.11-.37,3.26-1.17,4.96-4.76,3.79-8.02l-7.93-22.15c-1.16-3.24-4.73-4.95-7.98-3.8l-23.49,8.24c-3.27,1.15-4.99,4.72-3.84,7.99,1.14,3.27,4.73,4.99,7.99,3.84Z"/>
        <path class="st2" d="M695.93,572.31c-3.11-1.5-6.87-.19-8.36,2.93l-2.75,5.72c-4.4-11.94-9.51-21.56-9.79-22.07-2.18-4.07-7.25-5.6-11.31-3.43-4.07,2.18-5.61,7.24-3.43,11.31.06.11,4.98,9.39,9.03,20.49l-5.48-2.59c-3.13-1.48-6.86-.14-8.35,2.99-1.48,3.13-.14,6.87,2.99,8.35l21.27,10.05c.87.41,1.78.6,2.67.6,2.33,0,4.58-1.31,5.65-3.56l10.78-22.44c1.5-3.12.19-6.87-2.93-8.37Z"/>
      </g>
    </g>
  </g>
  <g id="Capa_6" class="st3">
    <path class="st0" d="M-1201.62,2578.33c-10.05-1.93-20.29-3.79-30.51-2.12-7.48,1.23-15.04,4.86-19.98,10.72-5.59,6.62-7.11,15.38-4.64,23.64,2.52,8.42,8.57,15.06,15.78,19.84,15.62,10.35,35.28,12.87,53.54,14.03,19.01,1.21,38.1,1.16,57.11-.16s38.07-3.91,56.78-7.84c18.62-3.9,36.97-9.15,54.81-15.76,4.44-1.65,8.86-3.38,13.23-5.2,3.82-1.59,7.83-3.04,10.99-5.81s4.55-6.77,3.17-10.64c-1.32-3.74-4.6-6.42-7.95-8.31-4-2.26-8.45-3.9-12.78-5.42s-9.13-2.9-13.78-4.05c-9.63-2.39-19.43-4.18-29.23-5.7-19.95-3.11-40.11-4.83-60.29-5.47s-40.35-.21-60.49.93c-4.93.28-9.86.6-14.79.96-1.35.1-2.5,1.08-2.5,2.5,0,1.28,1.15,2.6,2.5,2.5,19.39-1.4,38.83-2.24,58.27-2.17,19.33.06,38.67,1.01,57.88,3.17,9.5,1.06,18.96,2.44,28.36,4.14s18.46,3.57,27.44,6.3c4.36,1.33,8.68,2.85,12.86,4.7,3.16,1.4,6.7,2.98,8.83,5.83,5,6.7-6.97,10.56-11.32,12.34-16.9,6.94-34.31,12.6-52.03,17.02-17.67,4.41-35.64,7.59-53.74,9.55-18.27,1.98-36.66,2.75-55.03,2.36s-36.42-1.02-53.53-6.67c-14.38-4.75-31.66-15.35-30.23-32.82.59-7.21,5.62-12.9,11.75-16.24,7.46-4.06,16.09-4.43,24.38-3.58,4.64.48,9.22,1.37,13.79,2.24,1.32.25,2.7-.37,3.08-1.75.34-1.22-.41-2.82-1.75-3.08h0Z"/>
    <path class="st0" d="M-1332.53,2082.43c-7.58-.85-15.34,2.63-20.34,8.27-2.54,2.86-4.5,6.29-5.42,10.02-1.12,4.51-.66,9.26.52,13.71,2.18,8.15,6.27,16.02,10.87,23.05,4.45,6.8,9.71,13.07,15.54,18.72,12.16,11.78,26.69,20.89,42.21,27.54,17.75,7.6,36.55,12.22,55.55,15.37,20.08,3.33,40.55,5.75,60.93,5.22,19-.5,37.99-3.79,55.49-11.39,8.19-3.55,16.16-8.04,23.01-13.8,6.44-5.41,11.58-12.55,12.9-21.02,1.28-8.2-.43-16.61-4.41-23.87-4.15-7.57-10.84-13.32-18.2-17.66-7.84-4.62-16.47-7.92-24.96-11.11-9.16-3.43-18.47-6.46-27.93-8.95-19.02-5.01-38.76-7.88-58.45-7.34-3.96.11-8.29.59-11.1,3.7-2.16,2.38,1.37,5.93,3.54,3.54,2.42-2.67,6.88-2.25,10.14-2.29,4.75-.06,9.5.08,14.24.4,9.26.62,18.46,1.94,27.54,3.81,18.12,3.74,35.99,9.51,52.98,16.84,7.45,3.21,14.89,6.99,20.85,12.59,5.61,5.27,9.43,12.06,10.78,19.66,1.31,7.35-.25,14.81-4.56,20.91-4.69,6.64-11.91,11.37-18.89,15.3-15.26,8.59-32.6,13.18-49.95,14.87-19.71,1.93-39.6.4-59.17-2.23-18.08-2.43-36.12-5.8-53.47-11.51-16.02-5.27-31.36-12.67-44.83-22.9-12.21-9.28-22.77-20.96-29.96-34.55-1.83-3.46-3.47-7.04-4.77-10.73-1.45-4.13-2.57-8.62-1.94-13.02.95-6.57,5.89-12.19,11.88-14.79,2.97-1.29,6.17-1.72,9.38-1.36,1.34.15,2.5-1.26,2.5-2.5,0-1.48-1.15-2.35-2.5-2.5h0Z"/>
    <path class="st0" d="M-1292.99,2354.61c-6.4,1.01-12.6,3.11-18.32,6.15-2.76,1.46-5.38,3.16-7.85,5.06-2.64,2.03-4.96,4.49-5.68,7.85-1.43,6.64,2.45,12.62,7.49,16.56s10.7,6.52,16.8,7.8c11.76,2.47,24.11-.15,33.69-7.46,4.54-3.47,8.42-7.77,11.23-12.76,1.63-2.89,3.04-6.04,3.21-9.4.16-3.01-1.01-5.92-3.11-8.05-4.25-4.32-11.12-5.41-16.86-6.11-6.51-.79-13.36-.16-18.49,4.32-1.02.89-.91,2.63,0,3.54,1.01,1.01,2.52.89,3.54,0,3.65-3.19,8.81-3.42,13.4-3.02,4.25.38,9.08,1.12,12.83,3.28,1.58.91,2.97,2.15,3.48,3.92.74,2.6-.43,5.38-1.6,7.68-2.2,4.31-5.24,8.1-8.9,11.26-7.66,6.61-17.73,9.61-27.75,8.54-5.17-.55-10.27-2.29-14.73-4.94-4.14-2.46-8.87-6.13-9.48-11.28-.34-2.9.88-5.13,3.02-6.99,2.27-1.98,4.93-3.61,7.56-5.06,5.56-3.06,11.61-5.06,17.88-6.05,1.33-.21,2.08-1.88,1.75-3.08-.39-1.42-1.74-1.96-3.08-1.75h0Z"/>
    <path class="st0" d="M-1638.57,2372.79c-8.46-2.26-17.32-2.6-25.94-1.06-7.56,1.34-15.89,4.08-21.44,9.64-5.84,5.85-6.53,14.23-3.08,21.53s10.69,11.84,18,14.7c8.23,3.22,17.24,5.01,26.01,3.25,8.14-1.64,15.94-5.81,22.99-10.08,6.7-4.06,14.06-9.61,16.96-17.19,1.33-3.48,1.07-7.4-.9-10.59-1.76-2.86-4.55-4.98-7.47-6.57-3.33-1.82-6.96-3.05-10.55-4.25-4.34-1.45-8.73-2.65-13.28-3.19-7.58-.9-15.68.68-21.54,5.81-1.34,1.18-2.49,2.57-3.47,4.06-1.77,2.7,2.56,5.21,4.32,2.52,3.29-5.02,9.5-7.38,15.31-7.62,7.69-.32,15.43,2.35,22.52,5.07,4.37,1.68,10.78,4.78,10.91,10.06.08,3.32-2.15,6.31-4.25,8.68-2.33,2.63-5.03,4.88-7.93,6.86s-6.15,3.81-9.35,5.49-6.69,3.4-10.24,4.63c-3.64,1.26-7.38,2.05-11.24,2.04s-7.76-.74-11.52-1.81c-6.72-1.92-13.62-4.76-18.29-10.17-3.98-4.62-5.75-11.71-2.42-17.15s10.47-8.21,16.47-9.83c7.25-1.96,14.98-2.43,22.4-1.23,1.92.31,3.81.72,5.68,1.23,3.11.83,4.44-3.99,1.33-4.82h0Z"/>
  </g>
</svg>