<?xml version="1.0" encoding="UTF-8"?>
<svg id="Capa_1" xmlns="http://www.w3.org/2000/svg" version="1.1" xmlns:xlink="http://www.w3.org/1999/xlink" viewBox="0 0 1145.22 1179.11">
  <!-- Generator: Adobe Illustrator 29.7.1, SVG Export Plug-In . SVG Version: 2.1.1 Build 8)  -->
  <defs>
    <style>
      .st0 {
        fill: #1a466c;
      }

      .st1, .st2 {
        isolation: isolate;
      }

      .st1, .st3 {
        display: none;
      }

      .st2 {
        fill: #1d1d1b;
        font-family: MyriadPro-Regular, 'Myriad Pro';
        font-size: 72.17px;
      }

      .st4 {
        fill: #0a1d2b;
      }

      .st5 {
        fill: url(#Degradado_sin_nombre_2);
      }

      .st6 {
        fill: url(#Degradado_sin_nombre);
      }

      .st7 {
        fill: #83cee3;
      }
    </style>
    <linearGradient id="Degradado_sin_nombre" data-name="Degradado sin nombre" x1="664.46" y1="552.56" x2="1004.82" y2="552.56" gradientTransform="translate(0 1180) scale(1 -1)" gradientUnits="userSpaceOnUse">
      <stop offset="0" stop-color="#2a80c3"/>
      <stop offset=".53" stop-color="#00b2bb"/>
      <stop offset="1" stop-color="#63bea9"/>
    </linearGradient>
    <linearGradient id="Degradado_sin_nombre_2" data-name="Degradado sin nombre 2" x1="208.39" y1="622.33" x2="556.41" y2="622.33" gradientTransform="translate(0 1180) scale(1 -1)" gradientUnits="userSpaceOnUse">
      <stop offset="0" stop-color="#1676bc"/>
      <stop offset=".53" stop-color="#438ccb"/>
      <stop offset="1" stop-color="#8bd0e2"/>
    </linearGradient>
  </defs>
  <g id="Capa_4" class="st3">
    <g class="st1">
      <text class="st2" transform="translate(-2054.19 4103.78)"><tspan x="0" y="0">portada</tspan></text>
    </g>
    <g class="st1">
      <text class="st2" transform="translate(-1404.61 4103.78)"><tspan x="0" y="0">contra</tspan></text>
    </g>
  </g>
  <g id="Capa_11" data-name="Capa_1">
    <g>
      <path class="st6" d="M393.45,754.2c9.02,1.21,18.34,2.06,27.96,2.56,4.32.39,7.67.59,10.03.59h9.74c2.36,0,5.7-.2,10.03-.59,6.81-.31,13.4-.9,19.89-1.61,1.04.04,2.06.14,3.12.14h145.21v53.47c0,17.22,6.3,32.13,18.91,44.74,27.79,27.78,72.13,19.47,107.97,19.47h2.17c5.15,0,9.32-4.17,9.32-9.32s-4.17-9.32-9.32-9.32h-27.97c-6.18,0-11.19-5.01-11.19-11.19s5.01-11.19,11.19-11.19h63.41c4.12,0,7.46-3.34,7.46-7.46s-3.34-7.46-7.46-7.46h-65.27c-3.09,0-5.59-2.5-5.59-5.59s2.5-5.59,5.59-5.59h85.78c3.09,0,5.59-2.5,5.59-5.59s-2.5-5.59-5.59-5.59h-63.41c-5.15,0-9.32-4.17-9.32-9.32s4.17-9.32,9.32-9.32h55.95c3.09,0,5.59-2.5,5.59-5.59s-2.5-5.59-5.59-5.59h-100.7c-3.09,0-5.59-2.5-5.59-5.59s2.5-5.59,5.59-5.59h218.19c6.18,0,11.19-5.01,11.19-11.19s-5.01-11.19-11.19-11.19h-95.11c-3.09,0-5.59-2.5-5.59-5.59s2.5-5.59,5.59-5.59h104.43c7.21,0,13.05-5.84,13.05-13.05s-5.84-13.05-13.05-13.05c0,0-92.97,0-92.98-.03-.09,0-.17.03-.26.03h-52.22c-5.15,0-9.32-4.17-9.32-9.32s4.17-9.32,9.32-9.32h119.35c5.15,0,9.32-4.17,9.32-9.32s-4.17-9.32-9.32-9.32h-190.22c-3.09,0-5.59-2.5-5.59-5.59s2.5-5.59,5.59-5.59h123.08c3.09,0,5.59-2.5,5.59-5.59s-2.5-5.59-5.59-5.59h-80.19c-4.12,0-7.46-3.34-7.46-7.46s3.34-7.46,7.46-7.46h52.22c4.12,0,7.46-3.34,7.46-7.46s-3.34-7.46-7.46-7.46h-55.95c-4.12,0-7.46-3.34-7.46-7.46s3.34-7.46,7.46-7.46h37.3c4.12,0,7.46-3.34,7.46-7.46s-3.34-7.46-7.46-7.46h-65.27c-5.15,0-9.32-4.17-9.32-9.32s4.17-9.32,9.32-9.32h83.92c6.18,0,11.19-5.01,11.19-11.19s-5.01-11.19-11.19-11.19h-123.08c-4.12,0-7.46-3.34-7.46-7.46s3.34-7.46,7.46-7.46h208.87c4.12,0,7.46-3.34,7.46-7.46s-3.34-7.46-7.46-7.46h-138c-4.12,0-7.46-3.34-7.46-7.46s3.34-7.46,7.46-7.46h78.32c6.18,0,11.19-5.01,11.19-11.19s-5.01-11.19-11.19-11.19h-134.27c-4.12,0-7.46-3.34-7.46-7.46s3.34-7.46,7.46-7.46h141.73c4.12,0,7.46-3.34,7.46-7.46s-3.34-7.46-7.46-7.46h-98.84c-5.15,0-9.32-4.17-9.32-9.32s4.17-9.32,9.32-9.32h124.95c10.3,0,18.65-8.35,18.65-18.65s-8.35-18.65-18.65-18.65h-205.06c-21.82,0-39.16,8.73-52.01,26.19-31.36,42.61-61.89,85.86-92.83,128.78-21.12,29.29-42.2,58.62-63.35,87.88-26.05,36.03-57.65,54.69-92.77,15.25,0,0-16.13-11.94-31.05-64.16,0,0,6.04,150.34,68.29,179.6v-.09ZM645.55,657.08h-86.71l86.71-138.95v138.95Z"/>
      <circle class="st7" cx="858.52" cy="477.62" r="11.19"/>
      <circle class="st7" cx="832.41" cy="544.75" r="11.19"/>
      <circle class="st7" cx="925.66" cy="665.97" r="9.32"/>
      <circle class="st7" cx="882.76" cy="475.75" r="5.59"/>
      <circle class="st7" cx="804.44" cy="826.35" r="5.59"/>
      <path class="st5" d="M556.41,757.35c-201.41-14.92-231.87-183.52-231.87-183.52-1.7-9.22-2.55-18.86-2.55-28.9,0-36.78,11.31-67.95,33.93-93.52,22.62-25.57,69.95-52.11,114.7-33.46,0,0-34.51-37.3-70.87-48.49-48.49-14.92-67.14-11.19-67.14-11.19-33.02,10.06-50.95,27.39-63.15,39.15-40.71,39.34-61.07,90.28-61.07,152.83,0,58.02,17.8,105.43,53.4,142.2,32.78,33.8,76.85,53.1,131.65,61.75,27.26,4.31,162.96,3.15,162.96,3.15h.01Z"/>
      <g>
        <circle class="st4" cx="517.44" cy="436.35" r="47.78"/>
        <path class="st4" d="M490.42,476.78s39.89,26.94,67.41-18.75l-1.72-48.57s-58.5-106.61-236.32-47.61c0,0,71.85,3.04,112.37,47.19,33.83,36.86,28.14,46.34,58.26,67.75h0Z"/>
      </g>
    </g>
  </g>
  <g id="Capa_6" class="st3">
    <path class="st0" d="M-1201.62,2578.33c-10.05-1.93-20.29-3.79-30.51-2.12-7.48,1.23-15.04,4.86-19.98,10.72-5.59,6.62-7.11,15.38-4.64,23.64,2.52,8.42,8.57,15.06,15.78,19.84,15.62,10.35,35.28,12.87,53.54,14.03,19.01,1.21,38.1,1.16,57.11-.16s38.07-3.91,56.78-7.84c18.62-3.9,36.97-9.15,54.81-15.76,4.44-1.65,8.86-3.38,13.23-5.2,3.82-1.59,7.83-3.04,10.99-5.81s4.55-6.77,3.17-10.64c-1.32-3.74-4.6-6.42-7.95-8.31-4-2.26-8.45-3.9-12.78-5.42s-9.13-2.9-13.78-4.05c-9.63-2.39-19.43-4.18-29.23-5.7-19.95-3.11-40.11-4.83-60.29-5.47s-40.35-.21-60.49.93c-4.93.28-9.86.6-14.79.96-1.35.1-2.5,1.08-2.5,2.5,0,1.28,1.15,2.6,2.5,2.5,19.39-1.4,38.83-2.24,58.27-2.17,19.33.06,38.67,1.01,57.88,3.17,9.5,1.06,18.96,2.44,28.36,4.14s18.46,3.57,27.44,6.3c4.36,1.33,8.68,2.85,12.86,4.7,3.16,1.4,6.7,2.98,8.83,5.83,5,6.7-6.97,10.56-11.32,12.34-16.9,6.94-34.31,12.6-52.03,17.02-17.67,4.41-35.64,7.59-53.74,9.55-18.27,1.98-36.66,2.75-55.03,2.36s-36.42-1.02-53.53-6.67c-14.38-4.75-31.66-15.35-30.23-32.82.59-7.21,5.62-12.9,11.75-16.24,7.46-4.06,16.09-4.43,24.38-3.58,4.64.48,9.22,1.37,13.79,2.24,1.32.25,2.7-.37,3.08-1.75.34-1.22-.41-2.82-1.75-3.08h0l.02.02Z"/>
    <path class="st0" d="M-1332.53,2082.43c-7.58-.85-15.34,2.63-20.34,8.27-2.54,2.86-4.5,6.29-5.42,10.02-1.12,4.51-.66,9.26.52,13.71,2.18,8.15,6.27,16.02,10.87,23.05,4.45,6.8,9.71,13.07,15.54,18.72,12.16,11.78,26.69,20.89,42.21,27.54,17.75,7.6,36.55,12.22,55.55,15.37,20.08,3.33,40.55,5.75,60.93,5.22,19-.5,37.99-3.79,55.49-11.39,8.19-3.55,16.16-8.04,23.01-13.8,6.44-5.41,11.58-12.55,12.9-21.02,1.28-8.2-.43-16.61-4.41-23.87-4.15-7.57-10.84-13.32-18.2-17.66-7.84-4.62-16.47-7.92-24.96-11.11-9.16-3.43-18.47-6.46-27.93-8.95-19.02-5.01-38.76-7.88-58.45-7.34-3.96.11-8.29.59-11.1,3.7-2.16,2.38,1.37,5.93,3.54,3.54,2.42-2.67,6.88-2.25,10.14-2.29,4.75-.06,9.5.08,14.24.4,9.26.62,18.46,1.94,27.54,3.81,18.12,3.74,35.99,9.51,52.98,16.84,7.45,3.21,14.89,6.99,20.85,12.59,5.61,5.27,9.43,12.06,10.78,19.66,1.31,7.35-.25,14.81-4.56,20.91-4.69,6.64-11.91,11.37-18.89,15.3-15.26,8.59-32.6,13.18-49.95,14.87-19.71,1.93-39.6.4-59.17-2.23-18.08-2.43-36.12-5.8-53.47-11.51-16.02-5.27-31.36-12.67-44.83-22.9-12.21-9.28-22.77-20.96-29.96-34.55-1.83-3.46-3.47-7.04-4.77-10.73-1.45-4.13-2.57-8.62-1.94-13.02.95-6.57,5.89-12.19,11.88-14.79,2.97-1.29,6.17-1.72,9.38-1.36,1.34.15,2.5-1.26,2.5-2.5,0-1.48-1.15-2.35-2.5-2.5h0Z"/>
    <path class="st0" d="M-1292.99,2354.61c-6.4,1.01-12.6,3.11-18.32,6.15-2.76,1.46-5.38,3.16-7.85,5.06-2.64,2.03-4.96,4.49-5.68,7.85-1.43,6.64,2.45,12.62,7.49,16.56s10.7,6.52,16.8,7.8c11.76,2.47,24.11-.15,33.69-7.46,4.54-3.47,8.42-7.77,11.23-12.76,1.63-2.89,3.04-6.04,3.21-9.4.16-3.01-1.01-5.92-3.11-8.05-4.25-4.32-11.12-5.41-16.86-6.11-6.51-.79-13.36-.16-18.49,4.32-1.02.89-.91,2.63,0,3.54,1.01,1.01,2.52.89,3.54,0,3.65-3.19,8.81-3.42,13.4-3.02,4.25.38,9.08,1.12,12.83,3.28,1.58.91,2.97,2.15,3.48,3.92.74,2.6-.43,5.38-1.6,7.68-2.2,4.31-5.24,8.1-8.9,11.26-7.66,6.61-17.73,9.61-27.75,8.54-5.17-.55-10.27-2.29-14.73-4.94-4.14-2.46-8.87-6.13-9.48-11.28-.34-2.9.88-5.13,3.02-6.99,2.27-1.98,4.93-3.61,7.56-5.06,5.56-3.06,11.61-5.06,17.88-6.05,1.33-.21,2.08-1.88,1.75-3.08-.39-1.42-1.74-1.96-3.08-1.75h-.03Z"/>
    <path class="st0" d="M-1638.57,2372.79c-8.46-2.26-17.32-2.6-25.94-1.06-7.56,1.34-15.89,4.08-21.44,9.64-5.84,5.85-6.53,14.23-3.08,21.53s10.69,11.84,18,14.7c8.23,3.22,17.24,5.01,26.01,3.25,8.14-1.64,15.94-5.81,22.99-10.08,6.7-4.06,14.06-9.61,16.96-17.19,1.33-3.48,1.07-7.4-.9-10.59-1.76-2.86-4.55-4.98-7.47-6.57-3.33-1.82-6.96-3.05-10.55-4.25-4.34-1.45-8.73-2.65-13.28-3.19-7.58-.9-15.68.68-21.54,5.81-1.34,1.18-2.49,2.57-3.47,4.06-1.77,2.7,2.56,5.21,4.32,2.52,3.29-5.02,9.5-7.38,15.31-7.62,7.69-.32,15.43,2.35,22.52,5.07,4.37,1.68,10.78,4.78,10.91,10.06.08,3.32-2.15,6.31-4.25,8.68-2.33,2.63-5.03,4.88-7.93,6.86s-6.15,3.81-9.35,5.49-6.69,3.4-10.24,4.63c-3.64,1.26-7.38,2.05-11.24,2.04s-7.76-.74-11.52-1.81c-6.72-1.92-13.62-4.76-18.29-10.17-3.98-4.62-5.75-11.71-2.42-17.15s10.47-8.21,16.47-9.83c7.25-1.96,14.98-2.43,22.4-1.23,1.92.31,3.81.72,5.68,1.23,3.11.83,4.44-3.99,1.33-4.82h.01Z"/>
  </g>
</svg>